<svg width="1316" height="415" xmlns="http://www.w3.org/2000/svg"><defs><linearGradient x1="50%" y1="-6.896%" x2="50%" y2="100%" id="a"><stop stop-color="#F7F6ED" offset="0%"/><stop stop-color="#E8E3C7" offset="100%"/></linearGradient></defs><g fill="none"><path d="M71.789 0H1244.21c24.963 0 34.015 2.6 43.14 7.48 9.127 4.88 16.289 12.042 21.17 21.168 4.88 9.126 7.479 18.178 7.479 43.14v271.423c0 24.963-2.6 34.015-7.48 43.14-4.88 9.127-12.042 16.289-21.168 21.17-9.126 4.88-18.178 7.479-43.14 7.479H71.788c-24.963 0-34.015-2.6-43.14-7.48-9.127-4.88-16.289-12.042-21.17-21.168C2.6 377.226 0 368.174 0 343.212V71.788c0-24.963 2.6-34.015 7.48-43.14 4.88-9.127 12.042-16.289 21.168-21.17C37.774 2.6 46.826 0 71.788 0z" fill="url(#a)"/><g transform="translate(114.979 144)" fill="#372213"><path d="M107.047 139.537h-.481c-5.296 23.276-29.204 36.92-51.668 36.92-36.745 0-54.877-29.215-54.877-62.925C.021 78.216 19.437 49 56.503 49c25.031 0 44.767 16.695 49.902 38.205h.482V52.05h5.134v127.297c0 35.798-20.538 52.653-54.716 52.653-26.636 0-49.421-12.04-50.224-41.416h5.135c.963 26.166 21.02 36.28 44.768 36.28 31.77 0 49.903-15.09 49.903-47.677v-39.65h.16zm-50.544-85.4c-34.018 0-51.508 27.45-51.508 59.395 0 32.586 17.33 57.95 49.422 57.95 33.856 0 52.31-26.166 52.31-57.95.32-30.34-17.17-59.395-50.224-59.395zM187.265 49c38.809 0 59.756 33.133 59.756 69 0 36.189-20.947 69-60.081 69-38.81 0-59.919-32.811-59.919-69 .163-35.867 21.11-69 60.244-69zm0 132.853c35.399 0 54.56-30.56 54.56-63.853 0-32.811-19.161-63.853-54.56-63.853-36.049 0-54.885 31.042-54.885 63.853 0 33.294 18.836 63.853 54.885 63.853zM313.18 49c38.214 0 58.84 33.133 58.84 69 0 36.189-20.626 69-59.16 69-38.214 0-58.84-32.811-58.84-69 0-35.867 20.626-69 59.16-69zm0 132.853c35.016 0 53.724-30.56 53.724-63.853 0-32.811-18.868-63.853-53.724-63.853-35.496 0-54.044 31.042-54.044 63.853-.16 33.294 18.548 63.853 54.044 63.853zM490.853 0h5.168v183.932h-5.168V146.79h-.485c-6.622 23.093-26.004 40.21-52.977 40.21-35.05 0-56.37-29.067-56.37-68.954 0-37.142 19.867-69.6 56.37-69.6 28.104 0 46.84 16.31 52.977 40.21h.485V0zM437.39 53.613c-36.342 0-51.201 33.75-51.201 64.433 0 33.912 16.959 63.786 51.2 63.786 34.08 0 53.624-29.551 53.624-63.786-.161-41.018-21.482-64.433-53.623-64.433zm82.792-2.778h14.92V81.83h.486c8.27-21.198 26.432-33.884 50.432-32.76v16.059C556.508 63.522 536.4 85.04 536.4 112.502V183H520.02V50.835h.162zm79.927 71.349c.161 23.655 12.55 52.138 43.601 52.138 23.65 0 36.361-13.84 41.51-33.793h16.25C694.552 170.62 677.015 188 643.71 188c-41.992 0-59.69-32.345-59.69-70 0-34.92 17.698-70 59.69-70 42.636 0 59.53 37.172 58.242 74.345H600.11v-.161zm85.593-13.517c-.804-24.3-15.928-47.31-42.153-47.31-26.225 0-40.866 23.172-43.44 47.31h85.593zm31.122-17.253C718.275 60.356 740.199 47 770.506 47c23.375 0 48.845 7.241 48.845 42.644v70.322c0 6.114 3.063 9.816 9.512 9.816 1.773 0 3.869-.483 5.158-.966v13.517c-3.546.805-6.126.966-10.64.966-16.442 0-19.022-9.173-19.022-23.173h-.483C792.59 177.345 780.985 187 755.514 187c-24.342 0-44.493-12.069-44.493-38.782 0-37.172 36.271-38.46 71.253-42.643 13.38-1.61 20.796-3.38 20.796-18.023 0-21.885-15.637-27.196-34.82-27.196-19.99 0-34.982 9.334-35.466 30.897h-15.96v.16zm86.406 19.471h-.484c-2.095 3.862-9.35 5.15-13.702 5.954-27.566 4.828-61.742 4.667-61.742 30.575 0 16.253 14.347 26.23 29.5 26.23 24.665 0 46.59-15.61 46.267-41.518v-21.24h.16zM961.02 183.3h-14.807v-25.266h-.483c-6.92 17.22-28.005 28.967-47.158 28.967-40.399 0-59.552-32.508-59.552-70.004 0-37.497 19.153-70.005 59.552-70.005 19.796 0 38.95 9.978 45.87 28.968h.483V0h16.095v183.299zm-62.61-9.817c34.444 0 46.515-28.967 46.515-56.486 0-27.52-12.071-56.487-46.514-56.487-30.742 0-43.457 28.968-43.457 56.487 0 27.519 12.554 56.486 43.457 56.486zm165.787-84c-.801-19.953-16.018-28.965-34.439-28.965-14.256 0-31.075 5.632-31.075 22.85 0 14.323 16.339 19.472 27.391 22.369l21.464 4.827c18.42 2.897 37.482 13.678 37.482 36.69 0 28.804-28.352 39.747-52.86 39.747-30.593 0-51.577-14.322-54.14-46.667h16.018c1.282 21.724 17.46 33.15 38.924 33.15 15.057 0 36.04-6.598 36.04-25.104 0-15.448-14.256-20.436-28.832-24.138l-20.663-4.666c-20.984-5.632-36.842-12.874-36.842-35.403 0-26.873 26.27-37.172 49.496-37.172 26.27 0 47.253 13.84 48.214 42.644h-16.178v-.161z"/></g><path d="M502.062 108c.64 0 1.157-.517 1.157-1.156V83.719h23.125c.638 0 1.156-.518 1.156-1.156v-4.625c0-.64-.518-1.157-1.156-1.157h-23.125V53.656c0-.638-.518-1.156-1.157-1.156h-4.625c-.638 0-1.156.518-1.156 1.156v23.125h-23.125c-.639 0-1.156.518-1.156 1.157v4.625c0 .638.517 1.156 1.156 1.156h23.125v23.125c0 .639.518 1.156 1.156 1.156h4.625zm45.64 0c.617 0 1.135-.173 1.554-.518.42-.345.715-.74.888-1.184l4.958-12.802h23.791l4.958 12.802c.197.493.493.9.888 1.221.395.32.913.481 1.554.481h5.55l-21.201-53.021h-7.289L542.152 108h5.55zm29.193-19.684H557.1l8.325-21.534c.247-.641.5-1.388.759-2.239.259-.85.524-1.782.795-2.793.518 1.998 1.048 3.663 1.591 4.995l8.325 21.571zm40.441-24.642c.987 0 1.88-.191 2.683-.574a6.114 6.114 0 0 0 2.072-1.609c.58-.69 1.023-1.523 1.332-2.498.308-.974.462-2.04.462-3.2h-3.996c-.025 1.085-.278 1.887-.759 2.405-.48.518-1.165.777-2.053.777-.567 0-1.14-.179-1.72-.537a243.47 243.47 0 0 1-1.869-1.165 20.54 20.54 0 0 0-2.128-1.166 5.572 5.572 0 0 0-2.423-.536c-.962 0-1.85.191-2.664.574a6.148 6.148 0 0 0-2.109 1.627c-.592.703-1.048 1.542-1.369 2.517-.32.974-.481 2.053-.481 3.237h4.107c.05-2.17.962-3.256 2.738-3.256.567 0 1.147.179 1.739.536.592.358 1.221.747 1.887 1.166.666.42 1.375.808 2.128 1.166.752.357 1.56.536 2.423.536zM604.09 108V80.398c1.43-1.603 2.99-2.874 4.68-3.811a11.07 11.07 0 0 1 5.458-1.406c2.664 0 4.644.783 5.939 2.35 1.294 1.566 1.942 3.767 1.942 6.604V108h6.586V84.135c0-2.121-.271-4.058-.814-5.809-.543-1.751-1.338-3.25-2.386-4.495-1.049-1.246-2.356-2.208-3.923-2.886-1.566-.679-3.373-1.018-5.42-1.018-2.64 0-4.964.555-6.975 1.665-2.01 1.11-3.829 2.565-5.457 4.366l-.518-4.07c-.247-.913-.839-1.369-1.776-1.369h-3.922V108h6.586zm43.031.592c1.43 0 2.732-.123 3.904-.37a15.338 15.338 0 0 0 3.311-1.091 16.517 16.517 0 0 0 2.96-1.776c.937-.704 1.9-1.499 2.886-2.387l.74 3.478c.123.641.382 1.06.777 1.258.395.197.913.296 1.554.296h2.923V84.024c0-2.097-.284-4.02-.851-5.772-.567-1.751-1.406-3.244-2.516-4.477s-2.479-2.195-4.107-2.886c-1.628-.69-3.49-1.036-5.587-1.036-2.91 0-5.562.493-7.955 1.48s-4.625 2.479-6.697 4.477l1.184 2.109c.197.345.462.635.795.87.333.234.722.351 1.166.351.567 0 1.14-.204 1.72-.61.58-.407 1.27-.864 2.072-1.37.802-.505 1.752-.962 2.85-1.368 1.097-.407 2.448-.611 4.051-.611 2.442 0 4.286.746 5.531 2.239 1.246 1.492 1.869 3.693 1.869 6.604v2.923c-4.243.099-7.832.487-10.767 1.165-2.935.679-5.31 1.548-7.122 2.609-1.813 1.06-3.127 2.275-3.941 3.644-.814 1.37-1.221 2.794-1.221 4.274 0 1.702.278 3.176.832 4.422.556 1.245 1.302 2.275 2.239 3.089.937.814 2.041 1.424 3.312 1.831 1.27.407 2.633.611 4.088.611zm1.961-4.625a8.793 8.793 0 0 1-2.405-.314 5.112 5.112 0 0 1-1.924-1c-.543-.456-.974-1.042-1.295-1.757-.32-.715-.481-1.566-.481-2.553 0-1.036.302-1.973.907-2.812.604-.839 1.572-1.566 2.904-2.183 1.332-.617 3.059-1.116 5.18-1.498 2.121-.383 4.699-.623 7.733-.722v7.807c-.74.79-1.499 1.492-2.275 2.109a14.411 14.411 0 0 1-2.442 1.573c-.851.431-1.758.764-2.72.998-.962.235-2.023.352-3.182.352zm38.517 4.551c2.664 0 5.026-.586 7.085-1.758 2.06-1.171 3.892-2.731 5.495-4.68l.592 4.551c.247.913.839 1.369 1.776 1.369h3.922V53.499h-6.586v20.794c-1.283-1.406-2.738-2.498-4.366-3.275-1.628-.776-3.589-1.165-5.883-1.165-2.54 0-4.81.5-6.808 1.499a15 15 0 0 0-5.087 4.125c-1.394 1.751-2.461 3.817-3.201 6.197-.74 2.38-1.11 4.952-1.11 7.715 0 3.108.333 5.858.999 8.251.666 2.393 1.616 4.39 2.849 5.994 1.233 1.603 2.726 2.818 4.477 3.644 1.751.827 3.7 1.24 5.846 1.24zm2.183-5.328c-1.53 0-2.886-.259-4.07-.777-1.184-.518-2.183-1.338-2.997-2.46-.814-1.123-1.43-2.553-1.85-4.293-.42-1.739-.629-3.829-.629-6.271 0-4.613.937-8.165 2.812-10.656 1.875-2.491 4.563-3.737 8.066-3.737 1.751 0 3.348.327 4.791.98 1.443.654 2.77 1.795 3.978 3.423v18.13c-1.357 1.8-2.843 3.194-4.459 4.181-1.615.987-3.496 1.48-5.642 1.48zm31.82-39.775c.641 0 1.246-.123 1.813-.37a4.813 4.813 0 0 0 1.499-1.017 5.167 5.167 0 0 0 1.035-1.48 4.19 4.19 0 0 0 .389-1.795 4.44 4.44 0 0 0-.389-1.831 5.018 5.018 0 0 0-1.035-1.517 4.813 4.813 0 0 0-1.499-1.018 4.497 4.497 0 0 0-1.813-.37c-.641 0-1.24.123-1.794.37a4.878 4.878 0 0 0-1.48 1.017 4.755 4.755 0 0 0-1.388 3.349c0 .641.123 1.24.37 1.794a4.878 4.878 0 0 0 1.018 1.48c.431.432.925.771 1.48 1.018.554.247 1.153.37 1.794.37zM724.858 108V70.519h-6.586V108h6.586zm18.204 0V84.135c1.036-2.54 2.325-4.477 3.866-5.809 1.542-1.332 3.46-1.998 5.754-1.998 1.283 0 2.282.117 2.997.352.715.234 1.246.351 1.591.351.592 0 .974-.308 1.147-.925l.851-4.921a9.802 9.802 0 0 0-2.331-.98c-.839-.235-1.776-.352-2.812-.352-2.54 0-4.755.734-6.641 2.202-1.888 1.467-3.472 3.508-4.755 6.123l-.444-5.846c-.099-.666-.284-1.135-.555-1.406-.271-.271-.765-.407-1.48-.407h-3.774V108h6.586zm45.991.592c1.43 0 2.732-.123 3.904-.37a15.338 15.338 0 0 0 3.311-1.091 16.517 16.517 0 0 0 2.96-1.776c.937-.704 1.9-1.499 2.886-2.387l.74 3.478c.123.641.382 1.06.777 1.258.395.197.913.296 1.554.296h2.923V84.024c0-2.097-.284-4.02-.851-5.772-.567-1.751-1.406-3.244-2.516-4.477s-2.479-2.195-4.107-2.886c-1.628-.69-3.49-1.036-5.587-1.036-2.91 0-5.562.493-7.955 1.48s-4.625 2.479-6.697 4.477l1.184 2.109c.197.345.463.635.796.87.332.234.721.351 1.165.351.567 0 1.14-.204 1.72-.61.58-.407 1.27-.864 2.072-1.37.802-.505 1.752-.962 2.85-1.368 1.097-.407 2.448-.611 4.051-.611 2.442 0 4.286.746 5.532 2.239 1.245 1.492 1.868 3.693 1.868 6.604v2.923c-4.243.099-7.832.487-10.767 1.165-2.935.679-5.31 1.548-7.122 2.609-1.813 1.06-3.127 2.275-3.941 3.644-.814 1.37-1.221 2.794-1.221 4.274 0 1.702.278 3.176.832 4.422.556 1.245 1.302 2.275 2.239 3.089.937.814 2.041 1.424 3.312 1.831 1.27.407 2.633.611 4.088.611zm1.961-4.625a8.793 8.793 0 0 1-2.405-.314 5.112 5.112 0 0 1-1.924-1c-.543-.456-.974-1.042-1.295-1.757-.32-.715-.481-1.566-.481-2.553 0-1.036.302-1.973.907-2.812.604-.839 1.572-1.566 2.904-2.183 1.332-.617 3.059-1.116 5.18-1.498 2.121-.383 4.699-.623 7.733-.722v7.807c-.74.79-1.499 1.492-2.276 2.109a14.411 14.411 0 0 1-2.442 1.573c-.85.431-1.757.764-2.719.998-.962.235-2.023.352-3.182.352z" fill="#2C2C2C"/></g></svg>