<svg width="448" height="448" xmlns="http://www.w3.org/2000/svg"><path d="M414.236 8.815c10.755 5.753 19.196 14.194 24.949 24.95C444.937 44.52 448 55.187 448 84.607v278.784c0 29.42-3.063 40.088-8.815 50.844-5.753 10.755-14.194 19.196-24.95 24.949-10.755 5.752-21.423 8.815-50.843 8.815H84.608c-29.42 0-40.088-3.063-50.844-8.815-10.755-5.753-19.196-14.194-24.949-24.95C3.121 403.589.062 393.026.001 364.27L0 84.609c0-29.42 3.063-40.09 8.815-50.845C14.568 23.01 23.01 14.568 33.765 8.815 44.411 3.121 54.974.062 83.73.001L363.391 0c29.42 0 40.09 3.063 50.845 8.815zM368 190.355c0-2.749-3.251-4.375-5.437-2.636-12.557 9.76-29.149 22.214-86.325 63.782-11.379 8.302-31.726 26.87-51.738 26.702-19.9.112-39.855-18.063-51.682-26.702-57.176-41.568-73.824-53.965-86.38-63.726-2.243-1.74-5.438-.169-5.438 2.636v114.662C81 319.94 93.052 332 107.906 332h233.188C355.948 332 368 319.94 368 305.073zM341.094 116H107.906C93.052 116 81 128.178 81 143.187v10.762c0 4.191 1.906 8.1 5.157 10.705 2.23 1.76 4.266 3.372 6.283 4.965l.93.735c13.184 10.4 26.759 20.832 89.986 67.195 9.417 6.91 28.14 23.675 41.144 23.449 13.005.226 31.727-16.54 41.144-23.45 74.385-54.543 80.046-59.3 97.199-72.894 3.251-2.55 5.157-6.514 5.157-10.705v-10.762c0-15.01-12.052-27.187-26.906-27.187z" fill="#FFF"/></svg>