<svg width="448" height="448" xmlns="http://www.w3.org/2000/svg"><path d="M295.449 0c53.045 0 72.28 5.523 91.673 15.894 19.393 10.372 34.612 25.591 44.984 44.984C442.476 80.27 448 99.506 448 152.55V295.45c0 53.045-5.523 72.28-15.894 91.673-10.372 19.393-25.591 34.612-44.984 44.984C367.73 442.476 348.494 448 295.45 448H152.55c-53.045 0-72.28-5.523-91.673-15.894-19.393-10.372-34.612-25.591-44.984-44.984C5.524 367.73 0 348.494 0 295.45V152.55c0-53.045 5.523-72.28 15.894-91.673 10.372-19.393 25.591-34.612 44.984-44.984C80.27 5.524 99.506 0 152.55 0H295.45zM273.28 56c-50.851 0-84.052 30.805-84.052 86.574v49.03h-56.531v64.328h56.53v136.671h69.543v-136.67h51.847l9.871-64.33h-61.718v-41.77c0-17.597 8.623-34.753 36.27-34.753h28.06V60.343S297.633 56 273.28 56z" fill="#FFF"/></svg>