<svg width="448" height="448" xmlns="http://www.w3.org/2000/svg"><path d="M295.449 0c53.045 0 72.28 5.523 91.673 15.894 19.393 10.372 34.612 25.591 44.984 44.984C442.476 80.27 448 99.506 448 152.55V295.45c0 53.045-5.523 72.28-15.894 91.673-10.372 19.393-25.591 34.612-44.984 44.984C367.73 442.476 348.494 448 295.45 448H152.55c-53.045 0-72.28-5.523-91.673-15.894-19.393-10.372-34.612-25.591-44.984-44.984C5.524 367.73 0 348.494 0 295.45V152.55c0-53.045 5.523-72.28 15.894-91.673 10.372-19.393 25.591-34.612 44.984-44.984C80.27 5.524 99.506 0 152.55 0H295.45zm-71.312 56c-51.9.403-87.2 31.203-100.6 77.803-4.3 14.9-5.8 30.1-5.5 45.6 1.7 77.9 45.1 117.8 112.4 115.2 28.9-1.1 54.5-17 69-45.2.5-1 1.1-1.9 1.7-2.9l.15.059.3.081c.05.016.1.035.15.06.141 1.788.194 8.692.2 15.896v2.707c-.006 7.205-.053 14.108-.1 15.897-.2 14.8-2 29.5-7.2 43.5-7.8 21-22.3 34.7-44.5 39.5-17.8 3.9-35.6 3.8-53.2-1.2-21.5-6.1-36.5-19-41.1-41.8-.242-1.293-.941-1.346-1.728-1.318l-.227.009c-.114.005-.23.009-.345.009h-26.8c.8 10.6 3.2 20.3 8.5 29.2 24.2 40.5 82.7 48.5 128.2 37.4 49.9-12.3 67.3-54.9 67.4-106.3v-.27l-.001-.122v-.32c-.014-5.313-.088-42.595-.098-185.182V73.722l-.001-10.82h-29v40.3c-.8.3-1.2-.5-1.6-1.2-9.6-20.7-35.9-46.3-76-46.002zm-3.481 22.004c46.9-.2 71.8 31.8 78.2 78.3 5.1 37.3-4.7 79-35.9 100.7-22.3 15.5-52.8 14.1-70.8 5.7-37.1-17.3-49.5-58.6-46.8-97.2 4.3-60.9 40.9-87.9 75.3-87.5z" fill="#FFF"/></svg>