<svg width="448" height="448" xmlns="http://www.w3.org/2000/svg"><path d="M295.449 0c53.045 0 72.28 5.523 91.673 15.894 19.393 10.372 34.612 25.591 44.984 44.984C442.476 80.27 448 99.506 448 152.55V295.45c0 53.045-5.523 72.28-15.894 91.673-10.372 19.393-25.591 34.612-44.984 44.984C367.73 442.476 348.494 448 295.45 448H152.55c-53.045 0-72.28-5.523-91.673-15.894-19.393-10.372-34.612-25.591-44.984-44.984C5.524 367.73 0 348.494 0 295.45V152.55c0-53.045 5.523-72.28 15.894-91.673 10.372-19.393 25.591-34.612 44.984-44.984C80.27 5.524 99.506 0 152.55 0H295.45zM225.55 64h-3.168l-1.723.002c-1.724.002-3.444.005-5.16.01l-1.712.006c-22.804.084-44.318.45-55.82 1.1-25.53 1.22-48.22 7.12-67 25.78s-24.56 41.37-25.85 67c-.617 10.919-.979 30.878-1.085 52.399l-.008 1.702-.007 1.708-.008 2.57-.004 1.719c-.003 1.433-.005 2.869-.006 4.306v3.168l.002 1.724c0 .861.002 1.722.004 2.582l.004 1.719.008 2.57.007 1.708c.095 22.168.46 42.904 1.092 54.124 1.22 25.58 7.11 48.3 25.85 67 18.74 18.7 41.37 24.56 67 25.85 11.503.649 33.017 1.015 55.821 1.099l1.713.006 1.716.004 1.72.004 1.723.003 1.723.001h3.168l1.724-.001 1.722-.003.86-.002 1.718-.004 1.715-.005 1.71-.006c22.486-.09 43.608-.455 54.967-1.096 25.6-1.22 48.29-7.19 67-25.85s24.56-41.37 25.85-67c.706-12.524 1.077-36.867 1.114-61.82l.003-2.583v-3.164l-.003-2.583-.001-.86-.004-1.718c-.002-1.145-.006-2.287-.01-3.426l-.007-1.706c-.095-22.143-.46-42.843-1.092-54.02-1.22-25.63-7.18-48.35-25.85-67.05-18.67-18.7-41.37-24.56-67-25.85-11.36-.64-32.48-1.006-54.967-1.096l-1.71-.006-1.715-.005-1.718-.004-2.582-.004L225.55 64zm-95.924 35.147c21.06-8.36 71.01-6.43 94.31-6.43 23.3 0 73.3-1.86 94.3 6.43a54 54 0 0 1 30.41 30.41l.04.01c8.35 21.07 6.43 71.05 6.43 94.33v.706c.037 23.572 1.837 72.834-6.43 93.624a54 54 0 0 1-30.41 30.41c-21.06 8.36-70.99 6.43-94.3 6.43h-.707c-23.6.036-72.813 1.777-93.603-6.43a54 54 0 0 1-30.41-30.41c-8.32-21.07-6.47-71.06-6.47-94.34s-1.85-73.33 6.43-94.33a54 54 0 0 1 30.41-30.41zm94.31 42.75c-45.287 0-82 36.713-82 82s36.713 82 82 82a81.9 81.9 0 0 0 82-82c0-45.287-36.713-82-82-82zm0 28.66c29.458.011 53.338 23.883 53.36 53.34 0 29.456-23.877 53.336-53.333 53.34-29.457.004-53.34-23.87-53.347-53.327-.007-29.456 23.864-53.342 53.32-53.353zm92.692-49.784a19.14 19.14 0 1 0-7.312 36.824l.04.04a19.1 19.1 0 0 0 19.09-19.18 19.14 19.14 0 0 0-11.818-17.684z" fill="#FFF"/></svg>